<mxfile host="65bd71144e">
    <diagram id="6KX3MPC0N4gA1I4EFOvk" name="ページ1">
        <mxGraphModel dx="1786" dy="2034" grid="1" gridSize="10" guides="1" tooltips="1" connect="1" arrows="1" fold="1" page="1" pageScale="1" pageWidth="827" pageHeight="1169" math="0" shadow="0">
            <root>
                <mxCell id="0"/>
                <mxCell id="1" parent="0"/>
                <mxCell id="5" style="edgeStyle=none;html=1;entryX=0.5;entryY=1;entryDx=0;entryDy=0;entryPerimeter=0;" edge="1" parent="1" source="2" target="4">
                    <mxGeometry relative="1" as="geometry">
                        <Array as="points">
                            <mxPoint x="399" y="480"/>
                        </Array>
                    </mxGeometry>
                </mxCell>
                <mxCell id="13" value="Inst addr" style="edgeStyle=none;html=1;entryX=0;entryY=0.5;entryDx=0;entryDy=0;" edge="1" parent="1" source="2" target="12">
                    <mxGeometry x="0.625" y="10" relative="1" as="geometry">
                        <mxPoint as="offset"/>
                    </mxGeometry>
                </mxCell>
                <mxCell id="14" value="pc" style="edgeStyle=none;html=1;entryX=-0.08;entryY=0.499;entryDx=0;entryDy=0;entryPerimeter=0;" edge="1" parent="1" source="2" target="17">
                    <mxGeometry x="0.9091" y="10" relative="1" as="geometry">
                        <mxPoint x="670" y="560" as="targetPoint"/>
                        <Array as="points">
                            <mxPoint x="400" y="480"/>
                            <mxPoint x="400" y="560"/>
                        </Array>
                        <mxPoint as="offset"/>
                    </mxGeometry>
                </mxCell>
                <mxCell id="2" value="PC" style="rounded=0;whiteSpace=wrap;html=1;fillColor=#6a00ff;fontColor=#ffffff;strokeColor=#3700CC;" vertex="1" parent="1">
                    <mxGeometry x="280" y="440" width="40" height="80" as="geometry"/>
                </mxCell>
                <mxCell id="15" style="edgeStyle=none;html=1;" edge="1" parent="1" source="3" target="2">
                    <mxGeometry relative="1" as="geometry"/>
                </mxCell>
                <mxCell id="3" value="" style="verticalLabelPosition=middle;verticalAlign=middle;html=1;shape=trapezoid;perimeter=trapezoidPerimeter;whiteSpace=wrap;size=0.07500000000000001;arcSize=10;flipV=1;labelPosition=center;align=center;rotation=-90;" vertex="1" parent="1">
                    <mxGeometry x="155" y="465" width="125" height="30" as="geometry"/>
                </mxCell>
                <mxCell id="9" value="current pc + 4 (next opcode)" style="edgeStyle=none;html=1;exitX=1;exitY=0.5;exitDx=0;exitDy=0;exitPerimeter=0;" edge="1" parent="1" source="4">
                    <mxGeometry x="0.0114" y="-10" relative="1" as="geometry">
                        <mxPoint x="200" y="440" as="targetPoint"/>
                        <Array as="points">
                            <mxPoint x="450" y="380"/>
                            <mxPoint x="450" y="320"/>
                            <mxPoint x="160" y="320"/>
                            <mxPoint x="160" y="440"/>
                        </Array>
                        <mxPoint as="offset"/>
                    </mxGeometry>
                </mxCell>
                <mxCell id="4" value="" style="verticalLabelPosition=bottom;verticalAlign=top;html=1;shape=mxgraph.flowchart.summing_function;" vertex="1" parent="1">
                    <mxGeometry x="384" y="365" width="30" height="30" as="geometry"/>
                </mxCell>
                <mxCell id="8" style="edgeStyle=none;html=1;entryX=0;entryY=0.5;entryDx=0;entryDy=0;entryPerimeter=0;" edge="1" parent="1" source="7" target="4">
                    <mxGeometry relative="1" as="geometry"/>
                </mxCell>
                <mxCell id="7" value="4" style="rounded=0;whiteSpace=wrap;html=1;" vertex="1" parent="1">
                    <mxGeometry x="320" y="360" width="40" height="40" as="geometry"/>
                </mxCell>
                <mxCell id="18" value="inst" style="edgeStyle=none;html=1;entryX=-0.051;entryY=0.399;entryDx=0;entryDy=0;entryPerimeter=0;" edge="1" parent="1" source="12" target="17">
                    <mxGeometry x="0.5" y="10" relative="1" as="geometry">
                        <mxPoint as="offset"/>
                    </mxGeometry>
                </mxCell>
                <mxCell id="12" value="Instruction&lt;br&gt;Memory Read" style="rounded=0;whiteSpace=wrap;html=1;fillColor=#60a917;fontColor=#ffffff;strokeColor=#2D7600;" vertex="1" parent="1">
                    <mxGeometry x="480" y="460" width="120" height="40" as="geometry"/>
                </mxCell>
                <mxCell id="23" value="inst" style="edgeStyle=none;html=1;entryX=0;entryY=0.25;entryDx=0;entryDy=0;exitX=0.996;exitY=0.4;exitDx=0;exitDy=0;exitPerimeter=0;" edge="1" parent="1" source="17" target="22">
                    <mxGeometry y="10" relative="1" as="geometry">
                        <mxPoint as="offset"/>
                    </mxGeometry>
                </mxCell>
                <mxCell id="34" value="pc" style="edgeStyle=none;html=1;entryX=-0.141;entryY=0.772;entryDx=0;entryDy=0;entryPerimeter=0;exitX=1;exitY=0.5;exitDx=0;exitDy=0;" edge="1" parent="1" source="17" target="31">
                    <mxGeometry x="0.9245" y="10" relative="1" as="geometry">
                        <Array as="points">
                            <mxPoint x="760" y="560"/>
                            <mxPoint x="760" y="777"/>
                        </Array>
                        <mxPoint as="offset"/>
                    </mxGeometry>
                </mxCell>
                <mxCell id="17" value="IF/ID" style="rounded=0;whiteSpace=wrap;html=1;fillColor=#a0522d;fontColor=#ffffff;strokeColor=#6D1F00;" vertex="1" parent="1">
                    <mxGeometry x="680" y="160" width="40" height="800" as="geometry"/>
                </mxCell>
                <mxCell id="21" value="IF" style="text;html=1;strokeColor=none;fillColor=none;align=center;verticalAlign=middle;whiteSpace=wrap;rounded=0;fontSize=24;" vertex="1" parent="1">
                    <mxGeometry x="341" y="170" width="116" height="30" as="geometry"/>
                </mxCell>
                <mxCell id="24" value="rs1" style="edgeStyle=none;html=1;entryX=-0.031;entryY=0.376;entryDx=0;entryDy=0;entryPerimeter=0;" edge="1" parent="1" target="46">
                    <mxGeometry x="-0.1111" y="10" relative="1" as="geometry">
                        <mxPoint x="960" y="510" as="targetPoint"/>
                        <mxPoint x="870" y="510" as="sourcePoint"/>
                        <mxPoint as="offset"/>
                    </mxGeometry>
                </mxCell>
                <mxCell id="29" value="imm" style="edgeStyle=none;html=1;exitX=0.994;exitY=0.812;exitDx=0;exitDy=0;exitPerimeter=0;entryX=-0.13;entryY=0.7;entryDx=0;entryDy=0;entryPerimeter=0;" edge="1" parent="1" source="22" target="31">
                    <mxGeometry x="0.8749" y="10" relative="1" as="geometry">
                        <mxPoint x="1120" y="640" as="targetPoint"/>
                        <Array as="points">
                            <mxPoint x="900" y="570"/>
                            <mxPoint x="900" y="720"/>
                        </Array>
                        <mxPoint as="offset"/>
                    </mxGeometry>
                </mxCell>
                <mxCell id="30" value="opcode + attr (need str,wb,rd...)" style="edgeStyle=none;html=1;exitX=1;exitY=0.25;exitDx=0;exitDy=0;entryX=-0.108;entryY=0.2;entryDx=0;entryDy=0;entryPerimeter=0;" edge="1" parent="1" source="22" target="31">
                    <mxGeometry x="0.6842" y="10" relative="1" as="geometry">
                        <mxPoint x="1120" y="420" as="targetPoint"/>
                        <Array as="points">
                            <mxPoint x="920" y="480"/>
                            <mxPoint x="920" y="320"/>
                        </Array>
                        <mxPoint as="offset"/>
                    </mxGeometry>
                </mxCell>
                <mxCell id="39" value="&lt;font style=&quot;font-size: 11px;&quot;&gt;rd&lt;/font&gt;" style="edgeStyle=none;html=1;fontSize=11;entryX=-0.099;entryY=0.671;entryDx=0;entryDy=0;entryPerimeter=0;exitX=1.027;exitY=0.682;exitDx=0;exitDy=0;exitPerimeter=0;" edge="1" parent="1" source="22" target="31">
                    <mxGeometry x="0.8884" y="9" relative="1" as="geometry">
                        <mxPoint x="980" y="640" as="targetPoint"/>
                        <Array as="points">
                            <mxPoint x="920" y="549"/>
                            <mxPoint x="920" y="695"/>
                        </Array>
                        <mxPoint as="offset"/>
                    </mxGeometry>
                </mxCell>
                <mxCell id="45" value="sign_ext(imm)" style="edgeStyle=none;html=1;entryX=-0.107;entryY=0.734;entryDx=0;entryDy=0;entryPerimeter=0;fontSize=11;exitX=1.005;exitY=0.937;exitDx=0;exitDy=0;exitPerimeter=0;" edge="1" parent="1" source="22" target="31">
                    <mxGeometry x="0.7713" y="9" relative="1" as="geometry">
                        <Array as="points">
                            <mxPoint x="880" y="590"/>
                            <mxPoint x="880" y="747"/>
                        </Array>
                        <mxPoint as="offset"/>
                    </mxGeometry>
                </mxCell>
                <mxCell id="73" style="edgeStyle=none;html=1;fontSize=11;exitX=1.011;exitY=0.432;exitDx=0;exitDy=0;exitPerimeter=0;fillColor=#e3c800;strokeColor=#B09500;" edge="1" parent="1" source="22">
                    <mxGeometry relative="1" as="geometry">
                        <mxPoint x="1050" y="420" as="targetPoint"/>
                        <Array as="points">
                            <mxPoint x="1020" y="510"/>
                            <mxPoint x="1020" y="420"/>
                        </Array>
                    </mxGeometry>
                </mxCell>
                <mxCell id="75" style="edgeStyle=none;html=1;fontSize=11;exitX=1.007;exitY=0.559;exitDx=0;exitDy=0;exitPerimeter=0;fillColor=#e3c800;strokeColor=#B09500;" edge="1" parent="1" source="22">
                    <mxGeometry relative="1" as="geometry">
                        <mxPoint x="1110" y="400" as="targetPoint"/>
                        <Array as="points">
                            <mxPoint x="1000" y="530"/>
                            <mxPoint x="1000" y="400"/>
                        </Array>
                    </mxGeometry>
                </mxCell>
                <mxCell id="22" value="Instruction&lt;br&gt;Parser" style="rounded=0;whiteSpace=wrap;html=1;" vertex="1" parent="1">
                    <mxGeometry x="800" y="440" width="70" height="160" as="geometry"/>
                </mxCell>
                <mxCell id="25" value="rs2" style="edgeStyle=none;html=1;entryX=-0.021;entryY=0.633;entryDx=0;entryDy=0;entryPerimeter=0;" edge="1" parent="1" target="46">
                    <mxGeometry x="-0.1111" y="10" relative="1" as="geometry">
                        <mxPoint x="960" y="530" as="targetPoint"/>
                        <mxPoint x="870" y="530" as="sourcePoint"/>
                        <mxPoint as="offset"/>
                    </mxGeometry>
                </mxCell>
                <mxCell id="26" value="x[X_LEN]" style="rounded=0;whiteSpace=wrap;html=1;fillColor=#6a00ff;fontColor=#ffffff;strokeColor=#3700CC;" vertex="1" parent="1">
                    <mxGeometry x="1030" y="440" width="80" height="40" as="geometry"/>
                </mxCell>
                <mxCell id="27" value="x[rs1]" style="edgeStyle=none;html=1;exitX=0.5;exitY=1;exitDx=0;exitDy=0;" edge="1" parent="1" source="67">
                    <mxGeometry x="0.0012" y="9" relative="1" as="geometry">
                        <mxPoint x="1280" y="510" as="targetPoint"/>
                        <mxPoint x="1200" y="510.42999999999995" as="sourcePoint"/>
                        <mxPoint as="offset"/>
                    </mxGeometry>
                </mxCell>
                <mxCell id="28" value="x[rs2]" style="edgeStyle=none;html=1;entryX=0;entryY=0.461;entryDx=0;entryDy=0;entryPerimeter=0;exitX=0.5;exitY=1;exitDx=0;exitDy=0;" edge="1" parent="1" source="68" target="31">
                    <mxGeometry y="10" relative="1" as="geometry">
                        <mxPoint x="1260" y="539.88" as="targetPoint"/>
                        <mxPoint x="1180" y="539.8799999999999" as="sourcePoint"/>
                        <mxPoint as="offset"/>
                    </mxGeometry>
                </mxCell>
                <mxCell id="50" value="x[rs1]" style="edgeStyle=none;html=1;entryX=0.778;entryY=1.017;entryDx=0;entryDy=0;fontSize=11;exitX=1.005;exitY=0.437;exitDx=0;exitDy=0;exitPerimeter=0;entryPerimeter=0;" edge="1" parent="1" source="31" target="49">
                    <mxGeometry x="0.7499" y="10" relative="1" as="geometry">
                        <Array as="points">
                            <mxPoint x="1360" y="510"/>
                            <mxPoint x="1360" y="430"/>
                        </Array>
                        <mxPoint as="offset"/>
                    </mxGeometry>
                </mxCell>
                <mxCell id="52" value="pc" style="edgeStyle=none;html=1;entryX=0;entryY=0.5;entryDx=0;entryDy=0;entryPerimeter=0;fontSize=11;exitX=1.059;exitY=0.775;exitDx=0;exitDy=0;exitPerimeter=0;" edge="1" parent="1" source="31" target="51">
                    <mxGeometry x="0.5401" y="10" relative="1" as="geometry">
                        <mxPoint as="offset"/>
                    </mxGeometry>
                </mxCell>
                <mxCell id="53" value="sign_ext(imm)" style="edgeStyle=none;html=1;entryX=0.5;entryY=0;entryDx=0;entryDy=0;entryPerimeter=0;fontSize=11;exitX=1.036;exitY=0.736;exitDx=0;exitDy=0;exitPerimeter=0;" edge="1" parent="1" source="31" target="51">
                    <mxGeometry x="-0.0463" y="9" relative="1" as="geometry">
                        <Array as="points">
                            <mxPoint x="1425" y="749"/>
                        </Array>
                        <mxPoint as="offset"/>
                    </mxGeometry>
                </mxCell>
                <mxCell id="56" value="for lui: imm" style="edgeStyle=none;html=1;fontSize=11;exitX=1.081;exitY=0.698;exitDx=0;exitDy=0;exitPerimeter=0;" edge="1" parent="1" source="31">
                    <mxGeometry x="0.7478" y="11" relative="1" as="geometry">
                        <mxPoint x="1640" y="721" as="targetPoint"/>
                        <mxPoint as="offset"/>
                    </mxGeometry>
                </mxCell>
                <mxCell id="59" value="pc" style="edgeStyle=none;html=1;entryX=0;entryY=0.5;entryDx=0;entryDy=0;entryPerimeter=0;fontSize=11;exitX=1.036;exitY=0.776;exitDx=0;exitDy=0;exitPerimeter=0;" edge="1" parent="1" source="31" target="57">
                    <mxGeometry x="0.7005" y="15" relative="1" as="geometry">
                        <Array as="points">
                            <mxPoint x="1360" y="780"/>
                            <mxPoint x="1360" y="825"/>
                        </Array>
                        <mxPoint as="offset"/>
                    </mxGeometry>
                </mxCell>
                <mxCell id="66" value="rd" style="edgeStyle=none;html=1;fontSize=11;exitX=1.054;exitY=0.671;exitDx=0;exitDy=0;exitPerimeter=0;" edge="1" parent="1" source="31">
                    <mxGeometry x="0.8804" y="10" relative="1" as="geometry">
                        <mxPoint x="1640" y="697" as="targetPoint"/>
                        <mxPoint as="offset"/>
                    </mxGeometry>
                </mxCell>
                <mxCell id="31" value="ID/EX" style="rounded=0;whiteSpace=wrap;html=1;fillColor=#a0522d;fontColor=#ffffff;strokeColor=#6D1F00;" vertex="1" parent="1">
                    <mxGeometry x="1280" y="160" width="40" height="800" as="geometry"/>
                </mxCell>
                <mxCell id="35" value="" style="endArrow=classic;startArrow=classic;html=1;" edge="1" parent="1">
                    <mxGeometry width="50" height="50" relative="1" as="geometry">
                        <mxPoint x="120" y="200" as="sourcePoint"/>
                        <mxPoint x="680" y="200" as="targetPoint"/>
                    </mxGeometry>
                </mxCell>
                <mxCell id="36" value="ID" style="text;html=1;strokeColor=none;fillColor=none;align=center;verticalAlign=middle;whiteSpace=wrap;rounded=0;fontSize=24;" vertex="1" parent="1">
                    <mxGeometry x="940" y="170" width="116" height="30" as="geometry"/>
                </mxCell>
                <mxCell id="37" value="" style="endArrow=classic;startArrow=classic;html=1;" edge="1" parent="1">
                    <mxGeometry width="50" height="50" relative="1" as="geometry">
                        <mxPoint x="720" y="198.82" as="sourcePoint"/>
                        <mxPoint x="1270" y="200" as="targetPoint"/>
                    </mxGeometry>
                </mxCell>
                <mxCell id="38" value="x[X_LEN]&lt;br&gt;(write)" style="rounded=0;whiteSpace=wrap;html=1;fillColor=#6a00ff;fontColor=#ffffff;strokeColor=#3700CC;" vertex="1" parent="1">
                    <mxGeometry x="1900" y="460" width="80" height="160" as="geometry"/>
                </mxCell>
                <mxCell id="40" value="EX" style="text;html=1;strokeColor=none;fillColor=none;align=center;verticalAlign=middle;whiteSpace=wrap;rounded=0;fontSize=24;" vertex="1" parent="1">
                    <mxGeometry x="1330" y="170" width="116" height="30" as="geometry"/>
                </mxCell>
                <mxCell id="41" value="" style="endArrow=classic;startArrow=classic;html=1;" edge="1" parent="1">
                    <mxGeometry width="50" height="50" relative="1" as="geometry">
                        <mxPoint x="1350" y="198" as="sourcePoint"/>
                        <mxPoint x="1580" y="199" as="targetPoint"/>
                    </mxGeometry>
                </mxCell>
                <mxCell id="69" style="edgeStyle=none;html=1;fontSize=11;exitX=1.002;exitY=0.351;exitDx=0;exitDy=0;exitPerimeter=0;" edge="1" parent="1" source="46">
                    <mxGeometry relative="1" as="geometry">
                        <mxPoint x="1140" y="490" as="targetPoint"/>
                        <Array as="points">
                            <mxPoint x="1120" y="508"/>
                            <mxPoint x="1120" y="490"/>
                        </Array>
                    </mxGeometry>
                </mxCell>
                <mxCell id="46" value="Read" style="rounded=0;whiteSpace=wrap;html=1;fillColor=#6a00ff;fontColor=#ffffff;strokeColor=#3700CC;" vertex="1" parent="1">
                    <mxGeometry x="1030" y="480" width="80" height="80" as="geometry"/>
                </mxCell>
                <mxCell id="77" style="edgeStyle=none;html=1;fontSize=11;entryX=0.5;entryY=0;entryDx=0;entryDy=0;fillColor=#e3c800;strokeColor=#B09500;" edge="1" parent="1" source="47" target="79">
                    <mxGeometry relative="1" as="geometry">
                        <mxPoint x="1170" y="380" as="targetPoint"/>
                        <Array as="points">
                            <mxPoint x="980" y="600"/>
                            <mxPoint x="980" y="380"/>
                            <mxPoint x="1070" y="380"/>
                        </Array>
                    </mxGeometry>
                </mxCell>
                <mxCell id="83" style="edgeStyle=none;html=1;fontSize=11;entryX=0.5;entryY=0;entryDx=0;entryDy=0;fillColor=#e3c800;strokeColor=#B09500;" edge="1" parent="1" source="47" target="82">
                    <mxGeometry relative="1" as="geometry">
                        <mxPoint x="1130" y="370" as="targetPoint"/>
                        <Array as="points">
                            <mxPoint x="980" y="600"/>
                            <mxPoint x="980" y="380"/>
                            <mxPoint x="1130" y="380"/>
                        </Array>
                    </mxGeometry>
                </mxCell>
                <mxCell id="47" value="Write" style="rounded=0;whiteSpace=wrap;html=1;fillColor=#6a00ff;fontColor=#ffffff;strokeColor=#3700CC;" vertex="1" parent="1">
                    <mxGeometry x="1030" y="560" width="80" height="80" as="geometry"/>
                </mxCell>
                <mxCell id="48" value="Instruction&lt;br&gt;Parser" style="rounded=0;whiteSpace=wrap;html=1;" vertex="1" parent="1">
                    <mxGeometry x="1920" y="770" width="70" height="160" as="geometry"/>
                </mxCell>
                <mxCell id="49" value="" style="verticalLabelPosition=middle;verticalAlign=middle;html=1;shape=trapezoid;perimeter=trapezoidPerimeter;whiteSpace=wrap;size=0.07500000000000001;arcSize=10;flipV=1;labelPosition=center;align=center;rotation=-90;" vertex="1" parent="1">
                    <mxGeometry x="1360" y="445" width="111.5" height="30" as="geometry"/>
                </mxCell>
                <mxCell id="55" value="for jal,auipc: pc + sign_ext(imm)" style="edgeStyle=none;html=1;fontSize=11;" edge="1" parent="1" source="51">
                    <mxGeometry x="0.2" y="10" relative="1" as="geometry">
                        <mxPoint x="1640" y="780" as="targetPoint"/>
                        <mxPoint as="offset"/>
                    </mxGeometry>
                </mxCell>
                <mxCell id="51" value="" style="verticalLabelPosition=bottom;verticalAlign=top;html=1;shape=mxgraph.flowchart.summing_function;fontSize=11;" vertex="1" parent="1">
                    <mxGeometry x="1410" y="765" width="30" height="30" as="geometry"/>
                </mxCell>
                <mxCell id="60" style="edgeStyle=none;html=1;fontSize=11;" edge="1" parent="1" target="57">
                    <mxGeometry relative="1" as="geometry">
                        <mxPoint x="1425" y="870" as="sourcePoint"/>
                    </mxGeometry>
                </mxCell>
                <mxCell id="62" value="for jal, jalr: pc + 4" style="edgeStyle=none;html=1;fontSize=11;" edge="1" parent="1" source="57">
                    <mxGeometry x="0.5" y="15" relative="1" as="geometry">
                        <mxPoint x="1640" y="825" as="targetPoint"/>
                        <mxPoint as="offset"/>
                    </mxGeometry>
                </mxCell>
                <mxCell id="57" value="" style="verticalLabelPosition=bottom;verticalAlign=top;html=1;shape=mxgraph.flowchart.summing_function;fontSize=11;" vertex="1" parent="1">
                    <mxGeometry x="1410" y="810" width="30" height="30" as="geometry"/>
                </mxCell>
                <mxCell id="61" value="4" style="rounded=0;whiteSpace=wrap;html=1;" vertex="1" parent="1">
                    <mxGeometry x="1405" y="870" width="40" height="40" as="geometry"/>
                </mxCell>
                <mxCell id="63" value="" style="verticalLabelPosition=middle;verticalAlign=middle;html=1;shape=trapezoid;perimeter=trapezoidPerimeter;whiteSpace=wrap;size=0.07500000000000001;arcSize=10;flipV=1;labelPosition=center;align=center;rotation=-90;" vertex="1" parent="1">
                    <mxGeometry x="1400" y="610" width="111.5" height="30" as="geometry"/>
                </mxCell>
                <mxCell id="67" value="" style="verticalLabelPosition=middle;verticalAlign=middle;html=1;shape=trapezoid;perimeter=trapezoidPerimeter;whiteSpace=wrap;size=0.2097902097902098;arcSize=10;flipV=1;labelPosition=center;align=center;rotation=-90;" vertex="1" parent="1">
                    <mxGeometry x="1120" y="495" width="71.5" height="30" as="geometry"/>
                </mxCell>
                <mxCell id="68" value="" style="verticalLabelPosition=middle;verticalAlign=middle;html=1;shape=trapezoid;perimeter=trapezoidPerimeter;whiteSpace=wrap;size=0.2097902097902098;arcSize=10;flipV=1;labelPosition=center;align=center;rotation=-90;" vertex="1" parent="1">
                    <mxGeometry x="1137" y="514" width="71.5" height="30" as="geometry"/>
                </mxCell>
                <mxCell id="70" style="edgeStyle=none;html=1;fontSize=11;entryX=0.771;entryY=1.016;entryDx=0;entryDy=0;entryPerimeter=0;" edge="1" parent="1" target="68">
                    <mxGeometry relative="1" as="geometry">
                        <mxPoint x="1110" y="530" as="sourcePoint"/>
                        <mxPoint x="1150" y="520" as="targetPoint"/>
                        <Array as="points">
                            <mxPoint x="1120" y="530"/>
                            <mxPoint x="1120" y="510"/>
                        </Array>
                    </mxGeometry>
                </mxCell>
                <mxCell id="72" style="edgeStyle=none;html=1;entryX=0.218;entryY=1.024;entryDx=0;entryDy=0;entryPerimeter=0;fontSize=11;fillColor=#e3c800;strokeColor=#B09500;exitX=-0.018;exitY=0.628;exitDx=0;exitDy=0;exitPerimeter=0;" edge="1" parent="1" source="47" target="68">
                    <mxGeometry relative="1" as="geometry">
                        <Array as="points">
                            <mxPoint x="1010" y="610"/>
                            <mxPoint x="1010" y="670"/>
                            <mxPoint x="1120" y="670"/>
                            <mxPoint x="1120" y="550"/>
                        </Array>
                    </mxGeometry>
                </mxCell>
                <mxCell id="71" value="fwd(x[rs])" style="edgeStyle=none;html=1;entryX=0.25;entryY=0;entryDx=0;entryDy=0;fontSize=11;fillColor=#e3c800;strokeColor=#B09500;" edge="1" parent="1" target="67">
                    <mxGeometry x="-0.0569" y="-22" relative="1" as="geometry">
                        <mxPoint x="1030" y="610" as="sourcePoint"/>
                        <Array as="points">
                            <mxPoint x="1010" y="610"/>
                            <mxPoint x="1010" y="670"/>
                            <mxPoint x="1120" y="670"/>
                            <mxPoint x="1120" y="610"/>
                            <mxPoint x="1120" y="530"/>
                        </Array>
                        <mxPoint x="-2" y="10" as="offset"/>
                    </mxGeometry>
                </mxCell>
                <mxCell id="84" style="edgeStyle=none;html=1;entryX=1;entryY=0.5;entryDx=0;entryDy=0;fontSize=11;fillColor=#e3c800;strokeColor=#B09500;" edge="1" parent="1" source="79" target="67">
                    <mxGeometry relative="1" as="geometry">
                        <Array as="points">
                            <mxPoint x="1156" y="420"/>
                        </Array>
                    </mxGeometry>
                </mxCell>
                <mxCell id="79" value="eq" style="rounded=0;whiteSpace=wrap;html=1;fontSize=11;" vertex="1" parent="1">
                    <mxGeometry x="1050" y="410" width="40" height="20" as="geometry"/>
                </mxCell>
                <mxCell id="85" style="edgeStyle=none;html=1;entryX=1;entryY=0.5;entryDx=0;entryDy=0;fontSize=11;fillColor=#e3c800;strokeColor=#B09500;" edge="1" parent="1" source="82" target="68">
                    <mxGeometry relative="1" as="geometry">
                        <Array as="points">
                            <mxPoint x="1173" y="400"/>
                        </Array>
                    </mxGeometry>
                </mxCell>
                <mxCell id="82" value="eq" style="rounded=0;whiteSpace=wrap;html=1;fontSize=11;" vertex="1" parent="1">
                    <mxGeometry x="1110" y="390" width="40" height="20" as="geometry"/>
                </mxCell>
            </root>
        </mxGraphModel>
    </diagram>
</mxfile>